<svg width="260" height="148" viewBox="0 0 260 148" fill="none" xmlns="http://www.w3.org/2000/svg">
<path d="M258.106 144.336C257.959 144.336 257.823 144.296 257.698 144.217C257.585 144.138 257.5 144.036 257.443 143.911C257.387 143.775 257.37 143.633 257.392 143.486C257.426 143.293 257.523 143.129 257.681 142.993C257.851 142.846 258.033 142.772 258.225 142.772C258.384 142.772 258.52 142.812 258.633 142.891C258.747 142.97 258.832 143.072 258.888 143.197C258.945 143.322 258.962 143.463 258.939 143.622C258.905 143.815 258.803 143.979 258.633 144.115C258.475 144.262 258.299 144.336 258.106 144.336Z" fill="black"/>
<path d="M248.98 147.702C248.787 147.702 248.572 147.662 248.334 147.583C248.084 147.515 247.801 147.413 247.484 147.277L247.943 146.444C248.487 146.659 248.866 146.767 249.082 146.767C249.422 146.767 249.716 146.67 249.966 146.478C250.226 146.285 250.447 146.03 250.629 145.713L251.972 143.435L256.613 135.598H257.701L251.887 145.492C251.603 145.968 251.326 146.37 251.054 146.699C250.782 147.027 250.481 147.277 250.153 147.447C249.824 147.617 249.433 147.702 248.98 147.702ZM251.615 144.098L249.439 135.598H250.476L252.448 143.418L252.635 144.098H251.615Z" fill="black"/>
<path d="M245.597 144.098L245.818 142.517L246.974 135.598H247.994L246.566 144.098H245.597ZM242.588 144.302C241.953 144.302 241.392 144.155 240.905 143.86C240.417 143.554 240.032 143.135 239.749 142.602C239.477 142.069 239.341 141.457 239.341 140.766C239.341 140.097 239.448 139.446 239.664 138.811C239.89 138.165 240.208 137.587 240.616 137.077C241.024 136.567 241.505 136.159 242.061 135.853C242.627 135.547 243.256 135.394 243.948 135.394C244.582 135.394 245.126 135.541 245.58 135.836C246.033 136.119 246.384 136.522 246.634 137.043C246.883 137.564 247.008 138.171 247.008 138.862C247.008 139.769 246.877 140.562 246.617 141.242C246.367 141.922 246.027 142.489 245.597 142.942C245.166 143.395 244.69 143.735 244.169 143.962C243.647 144.189 243.12 144.302 242.588 144.302ZM242.809 143.384C243.364 143.384 243.857 143.254 244.288 142.993C244.73 142.732 245.104 142.387 245.41 141.956C245.716 141.514 245.948 141.032 246.107 140.511C246.265 139.99 246.345 139.468 246.345 138.947C246.345 138.154 246.146 137.519 245.75 137.043C245.353 136.556 244.809 136.312 244.118 136.312C243.551 136.312 243.035 136.442 242.571 136.703C242.117 136.952 241.721 137.292 241.381 137.723C241.052 138.142 240.797 138.613 240.616 139.134C240.446 139.644 240.361 140.165 240.361 140.698C240.361 141.491 240.582 142.137 241.024 142.636C241.466 143.135 242.061 143.384 242.809 143.384Z" fill="black"/>
<path d="M235.685 144.098L235.906 142.517L237.623 132.198H238.643L236.654 144.098H235.685ZM232.676 144.302C232.042 144.302 231.481 144.154 230.993 143.86C230.506 143.554 230.121 143.134 229.837 142.602C229.565 142.069 229.429 141.457 229.429 140.766C229.429 140.097 229.537 139.445 229.752 138.811C229.979 138.165 230.296 137.587 230.704 137.077C231.112 136.567 231.594 136.159 232.149 135.853C232.716 135.547 233.345 135.394 234.036 135.394C234.671 135.394 235.215 135.541 235.668 135.836C236.122 136.119 236.473 136.521 236.722 137.043C236.972 137.564 237.096 138.17 237.096 138.862C237.096 139.768 236.966 140.562 236.705 141.242C236.456 141.922 236.116 142.488 235.685 142.942C235.255 143.395 234.779 143.735 234.257 143.962C233.736 144.188 233.209 144.302 232.676 144.302ZM232.897 143.384C233.453 143.384 233.946 143.253 234.376 142.993C234.818 142.732 235.192 142.386 235.498 141.956C235.804 141.514 236.037 141.032 236.195 140.511C236.354 139.989 236.433 139.468 236.433 138.947C236.433 138.153 236.235 137.519 235.838 137.043C235.442 136.555 234.898 136.312 234.206 136.312C233.64 136.312 233.124 136.442 232.659 136.703C232.206 136.952 231.809 137.292 231.469 137.723C231.141 138.142 230.886 138.612 230.704 139.134C230.534 139.644 230.449 140.165 230.449 140.698C230.449 141.491 230.67 142.137 231.112 142.636C231.554 143.134 232.149 143.384 232.897 143.384Z" fill="black"/>
<path d="M223.155 144.302C222.327 144.302 221.625 144.109 221.047 143.724C220.48 143.339 220.072 142.806 219.823 142.126C219.573 141.446 219.522 140.664 219.67 139.78C219.817 138.919 220.117 138.159 220.571 137.502C221.024 136.845 221.591 136.329 222.271 135.955C222.951 135.581 223.687 135.394 224.481 135.394C225.308 135.394 226.005 135.587 226.572 135.972C227.15 136.357 227.558 136.89 227.796 137.57C228.045 138.25 228.096 139.032 227.949 139.916C227.813 140.777 227.512 141.537 227.048 142.194C226.594 142.851 226.028 143.367 225.348 143.741C224.679 144.115 223.948 144.302 223.155 144.302ZM223.172 143.367C223.795 143.367 224.367 143.214 224.889 142.908C225.421 142.602 225.869 142.183 226.232 141.65C226.606 141.106 226.849 140.483 226.963 139.78C227.076 139.1 227.048 138.505 226.878 137.995C226.708 137.474 226.413 137.066 225.994 136.771C225.586 136.476 225.076 136.329 224.464 136.329C223.84 136.329 223.262 136.482 222.73 136.788C222.197 137.094 221.749 137.519 221.387 138.063C221.024 138.596 220.78 139.213 220.656 139.916C220.542 140.596 220.571 141.197 220.741 141.718C220.922 142.228 221.222 142.63 221.642 142.925C222.061 143.22 222.571 143.367 223.172 143.367Z" fill="black"/>
<path d="M214.052 144.098L215.888 133.184H212.012L212.165 132.198H221.005L220.852 133.184H216.976L215.14 144.098H214.052Z" fill="black"/>
<path d="M204.151 144.336C204.004 144.336 203.868 144.296 203.743 144.217C203.63 144.138 203.545 144.036 203.488 143.911C203.432 143.775 203.415 143.633 203.437 143.486C203.471 143.293 203.568 143.129 203.726 142.993C203.896 142.846 204.078 142.772 204.27 142.772C204.429 142.772 204.565 142.812 204.678 142.891C204.792 142.97 204.877 143.072 204.933 143.197C204.99 143.322 205.007 143.463 204.984 143.622C204.95 143.815 204.848 143.979 204.678 144.115C204.52 144.262 204.344 144.336 204.151 144.336Z" fill="black"/>
<path d="M198.765 144.302C198.108 144.302 197.558 144.206 197.116 144.013C196.674 143.809 196.334 143.554 196.096 143.248C195.858 142.931 195.705 142.608 195.637 142.279L196.589 142.007C196.714 142.426 196.963 142.761 197.337 143.01C197.711 143.248 198.131 143.367 198.595 143.367C198.992 143.367 199.383 143.305 199.768 143.18C200.154 143.044 200.471 142.851 200.72 142.602C200.97 142.341 201.094 142.018 201.094 141.633C201.094 141.304 200.964 141.038 200.703 140.834C200.454 140.63 200.074 140.454 199.564 140.307L198.765 140.086C198.108 139.905 197.598 139.638 197.235 139.287C196.884 138.936 196.708 138.533 196.708 138.08C196.708 137.536 196.85 137.066 197.133 136.669C197.428 136.261 197.836 135.949 198.357 135.734C198.879 135.507 199.485 135.394 200.176 135.394C200.924 135.394 201.531 135.558 201.995 135.887C202.46 136.204 202.755 136.635 202.879 137.179L201.927 137.502C201.803 137.06 201.587 136.754 201.281 136.584C200.987 136.414 200.562 136.329 200.006 136.329C199.372 136.329 198.833 136.488 198.391 136.805C197.949 137.122 197.728 137.513 197.728 137.978C197.728 138.193 197.842 138.409 198.068 138.624C198.306 138.828 198.669 138.992 199.156 139.117L199.853 139.304C200.669 139.519 201.253 139.831 201.604 140.239C201.956 140.647 202.131 141.1 202.131 141.599C202.131 142.12 201.978 142.585 201.672 142.993C201.366 143.401 200.958 143.724 200.448 143.962C199.95 144.189 199.389 144.302 198.765 144.302Z" fill="black"/>
<path d="M186.428 144.098L187.856 135.598H188.808L188.604 137.162L187.448 144.098H186.428ZM192.531 144.098L193.262 139.712H194.299L193.551 144.098H192.531ZM193.262 139.712C193.421 138.771 193.427 138.063 193.279 137.587C193.143 137.1 192.905 136.771 192.565 136.601C192.225 136.431 191.823 136.346 191.358 136.346C190.531 136.346 189.834 136.652 189.267 137.264C188.712 137.865 188.344 138.698 188.162 139.763L187.533 139.695C187.692 138.788 187.947 138.018 188.298 137.383C188.661 136.737 189.114 136.244 189.658 135.904C190.214 135.564 190.848 135.394 191.562 135.394C192.605 135.394 193.387 135.717 193.908 136.363C194.441 137.009 194.594 137.978 194.367 139.27L194.299 139.712H193.262Z" fill="black"/>
<path d="M180.289 144.302C179.462 144.302 178.759 144.109 178.181 143.724C177.615 143.339 177.207 142.806 176.957 142.126C176.708 141.446 176.657 140.664 176.804 139.78C176.952 138.919 177.252 138.159 177.705 137.502C178.159 136.845 178.725 136.329 179.405 135.955C180.085 135.581 180.822 135.394 181.616 135.394C182.443 135.394 183.14 135.587 183.707 135.972C184.285 136.357 184.693 136.89 184.931 137.57C185.18 138.25 185.231 139.032 185.084 139.916C184.948 140.777 184.647 141.537 184.183 142.194C183.729 142.851 183.163 143.367 182.483 143.741C181.814 144.115 181.083 144.302 180.289 144.302ZM180.306 143.367C180.93 143.367 181.502 143.214 182.024 142.908C182.556 142.602 183.004 142.183 183.366 141.65C183.74 141.106 183.984 140.483 184.097 139.78C184.211 139.1 184.183 138.505 184.013 137.995C183.843 137.474 183.548 137.066 183.129 136.771C182.721 136.476 182.211 136.329 181.599 136.329C180.975 136.329 180.397 136.482 179.864 136.788C179.332 137.094 178.884 137.519 178.521 138.063C178.159 138.596 177.915 139.213 177.791 139.916C177.677 140.596 177.705 141.197 177.875 141.718C178.057 142.228 178.357 142.63 178.776 142.925C179.196 143.22 179.706 143.367 180.306 143.367Z" fill="black"/>
<path d="M172.899 144.098L174.361 135.598H175.381L173.919 144.098H172.899ZM175.347 133.388C175.166 133.388 175.007 133.32 174.871 133.184C174.735 133.048 174.667 132.889 174.667 132.708C174.667 132.515 174.735 132.356 174.871 132.232C175.007 132.096 175.166 132.028 175.347 132.028C175.54 132.028 175.699 132.096 175.823 132.232C175.959 132.356 176.027 132.515 176.027 132.708C176.027 132.889 175.959 133.048 175.823 133.184C175.699 133.32 175.54 133.388 175.347 133.388Z" fill="black"/>
<path d="M169.535 144.302C168.776 144.302 168.215 144.092 167.852 143.673C167.501 143.242 167.387 142.647 167.512 141.888L169.008 132.946H170.028L168.515 141.956C168.436 142.409 168.492 142.76 168.685 143.01C168.889 143.248 169.212 143.367 169.654 143.367C169.801 143.367 169.949 143.338 170.096 143.282C170.255 143.225 170.476 143.123 170.759 142.976L171.099 143.894C170.725 144.075 170.425 144.188 170.198 144.234C169.971 144.279 169.75 144.302 169.535 144.302ZM166.9 136.533L167.053 135.598H172.289L172.136 136.533H166.9Z" fill="black"/>
<path d="M162.871 144.098L163.092 142.517L164.248 135.598H165.268L163.84 144.098H162.871ZM159.862 144.302C159.227 144.302 158.666 144.155 158.179 143.86C157.692 143.554 157.306 143.135 157.023 142.602C156.751 142.069 156.615 141.457 156.615 140.766C156.615 140.097 156.723 139.446 156.938 138.811C157.165 138.165 157.482 137.587 157.89 137.077C158.298 136.567 158.78 136.159 159.335 135.853C159.902 135.547 160.531 135.394 161.222 135.394C161.857 135.394 162.401 135.541 162.854 135.836C163.307 136.119 163.659 136.522 163.908 137.043C164.157 137.564 164.282 138.171 164.282 138.862C164.282 139.769 164.152 140.562 163.891 141.242C163.642 141.922 163.302 142.489 162.871 142.942C162.44 143.395 161.964 143.735 161.443 143.962C160.922 144.189 160.395 144.302 159.862 144.302ZM160.083 143.384C160.638 143.384 161.131 143.254 161.562 142.993C162.004 142.732 162.378 142.387 162.684 141.956C162.99 141.514 163.222 141.032 163.381 140.511C163.54 139.99 163.619 139.468 163.619 138.947C163.619 138.154 163.421 137.519 163.024 137.043C162.627 136.556 162.083 136.312 161.392 136.312C160.825 136.312 160.31 136.442 159.845 136.703C159.392 136.952 158.995 137.292 158.655 137.723C158.326 138.142 158.071 138.613 157.89 139.134C157.72 139.644 157.635 140.165 157.635 140.698C157.635 141.491 157.856 142.137 158.298 142.636C158.74 143.135 159.335 143.384 160.083 143.384Z" fill="black"/>
<path d="M151.004 144.302C150.177 144.302 149.474 144.109 148.896 143.724C148.33 143.339 147.922 142.806 147.672 142.126C147.423 141.446 147.372 140.664 147.519 139.78C147.667 138.919 147.967 138.159 148.42 137.502C148.874 136.845 149.44 136.329 150.12 135.955C150.8 135.581 151.537 135.394 152.33 135.394C152.874 135.394 153.362 135.479 153.792 135.649C154.234 135.819 154.608 136.057 154.914 136.363C155.232 136.669 155.47 137.032 155.628 137.451L154.693 137.859C154.512 137.372 154.212 136.998 153.792 136.737C153.384 136.465 152.891 136.329 152.313 136.329C151.69 136.329 151.112 136.482 150.579 136.788C150.047 137.094 149.599 137.519 149.236 138.063C148.874 138.596 148.63 139.213 148.505 139.916C148.392 140.596 148.42 141.197 148.59 141.718C148.772 142.228 149.072 142.63 149.491 142.925C149.911 143.22 150.421 143.367 151.021 143.367C151.656 143.367 152.24 143.208 152.772 142.891C153.305 142.562 153.747 142.12 154.098 141.565L154.948 142.109C154.495 142.8 153.923 143.339 153.231 143.724C152.551 144.109 151.809 144.302 151.004 144.302Z" fill="black"/>
<path d="M143.614 144.098L145.076 135.598H146.096L144.634 144.098H143.614ZM146.062 133.388C145.881 133.388 145.722 133.32 145.586 133.184C145.45 133.048 145.382 132.889 145.382 132.708C145.382 132.515 145.45 132.356 145.586 132.232C145.722 132.096 145.881 132.028 146.062 132.028C146.255 132.028 146.414 132.096 146.538 132.232C146.674 132.356 146.742 132.515 146.742 132.708C146.742 132.889 146.674 133.048 146.538 133.184C146.414 133.32 146.255 133.388 146.062 133.388Z" fill="black"/>
<path d="M139.944 144.098L141.967 132.198H142.987L140.964 144.098H139.944Z" fill="black"/>
<path d="M129.474 147.498L131.463 135.598H132.415L132.211 137.162L130.494 147.498H129.474ZM135.441 135.394C136.075 135.394 136.636 135.547 137.124 135.853C137.611 136.148 137.991 136.561 138.263 137.094C138.546 137.627 138.688 138.239 138.688 138.93C138.688 139.599 138.574 140.256 138.348 140.902C138.132 141.537 137.821 142.109 137.413 142.619C137.005 143.129 136.517 143.537 135.951 143.843C135.395 144.149 134.772 144.302 134.081 144.302C133.457 144.302 132.913 144.16 132.449 143.877C131.995 143.582 131.644 143.174 131.395 142.653C131.145 142.132 131.021 141.525 131.021 140.834C131.021 139.927 131.145 139.134 131.395 138.454C131.655 137.774 132.001 137.207 132.432 136.754C132.862 136.301 133.338 135.961 133.86 135.734C134.381 135.507 134.908 135.394 135.441 135.394ZM135.22 136.312C134.664 136.312 134.166 136.442 133.724 136.703C133.293 136.964 132.925 137.315 132.619 137.757C132.313 138.188 132.08 138.664 131.922 139.185C131.763 139.706 131.684 140.228 131.684 140.749C131.684 141.542 131.882 142.183 132.279 142.67C132.675 143.146 133.219 143.384 133.911 143.384C134.477 143.384 134.987 143.259 135.441 143.01C135.905 142.749 136.302 142.409 136.631 141.99C136.971 141.559 137.226 141.089 137.396 140.579C137.577 140.058 137.668 139.531 137.668 138.998C137.668 138.205 137.447 137.559 137.005 137.06C136.563 136.561 135.968 136.312 135.22 136.312Z" fill="black"/>
<path d="M119.479 147.498L121.468 135.598H122.42L122.216 137.162L120.499 147.498H119.479ZM125.446 135.394C126.081 135.394 126.642 135.547 127.129 135.853C127.617 136.148 127.996 136.561 128.268 137.094C128.552 137.627 128.693 138.239 128.693 138.93C128.693 139.599 128.58 140.256 128.353 140.902C128.138 141.537 127.826 142.109 127.418 142.619C127.01 143.129 126.523 143.537 125.956 143.843C125.401 144.149 124.778 144.302 124.086 144.302C123.463 144.302 122.919 144.16 122.454 143.877C122.001 143.582 121.65 143.174 121.4 142.653C121.151 142.132 121.026 141.525 121.026 140.834C121.026 139.927 121.151 139.134 121.4 138.454C121.661 137.774 122.007 137.207 122.437 136.754C122.868 136.301 123.344 135.961 123.865 135.734C124.387 135.507 124.914 135.394 125.446 135.394ZM125.225 136.312C124.67 136.312 124.171 136.442 123.729 136.703C123.299 136.964 122.93 137.315 122.624 137.757C122.318 138.188 122.086 138.664 121.927 139.185C121.769 139.706 121.689 140.228 121.689 140.749C121.689 141.542 121.888 142.183 122.284 142.67C122.681 143.146 123.225 143.384 123.916 143.384C124.483 143.384 124.993 143.259 125.446 143.01C125.911 142.749 126.308 142.409 126.636 141.99C126.976 141.559 127.231 141.089 127.401 140.579C127.583 140.058 127.674 139.531 127.674 138.998C127.674 138.205 127.452 137.559 127.01 137.06C126.568 136.561 125.973 136.312 125.225 136.312Z" fill="black"/>
<path d="M116.436 144.098L116.657 142.517L117.813 135.598H118.833L117.405 144.098H116.436ZM113.427 144.302C112.793 144.302 112.232 144.155 111.744 143.86C111.257 143.554 110.872 143.135 110.588 142.602C110.316 142.069 110.18 141.457 110.18 140.766C110.18 140.097 110.288 139.446 110.503 138.811C110.73 138.165 111.047 137.587 111.455 137.077C111.863 136.567 112.345 136.159 112.9 135.853C113.467 135.547 114.096 135.394 114.787 135.394C115.422 135.394 115.966 135.541 116.419 135.836C116.873 136.119 117.224 136.522 117.473 137.043C117.723 137.564 117.847 138.171 117.847 138.862C117.847 139.769 117.717 140.562 117.456 141.242C117.207 141.922 116.867 142.489 116.436 142.942C116.006 143.395 115.53 143.735 115.008 143.962C114.487 144.189 113.96 144.302 113.427 144.302ZM113.648 143.384C114.204 143.384 114.697 143.254 115.127 142.993C115.569 142.732 115.943 142.387 116.249 141.956C116.555 141.514 116.788 141.032 116.946 140.511C117.105 139.99 117.184 139.468 117.184 138.947C117.184 138.154 116.986 137.519 116.589 137.043C116.193 136.556 115.649 136.312 114.957 136.312C114.391 136.312 113.875 136.442 113.41 136.703C112.957 136.952 112.56 137.292 112.22 137.723C111.892 138.142 111.637 138.613 111.455 139.134C111.285 139.644 111.2 140.165 111.2 140.698C111.2 141.491 111.421 142.137 111.863 142.636C112.305 143.135 112.9 143.384 113.648 143.384Z" fill="black"/>
<path d="M101.737 144.098L103.726 132.198H104.814L102.825 144.098H101.737Z" fill="black"/>
<path d="M88.8516 144.098L95.7366 132.198H96.9266L90.1096 144.098H88.8516ZM98.7626 144.098L95.9066 132.198H96.9606L99.8676 144.098H98.7626ZM91.7756 140.409L91.9456 139.423H98.2356L98.0656 140.409H91.7756Z" fill="black"/>
<path d="M80.7115 144.302C80.0542 144.302 79.5045 144.206 79.0625 144.013C78.6205 143.809 78.2805 143.554 78.0425 143.248C77.8045 142.931 77.6515 142.608 77.5835 142.279L78.5355 142.007C78.6602 142.426 78.9095 142.761 79.2835 143.01C79.6575 143.248 80.0768 143.367 80.5415 143.367C80.9382 143.367 81.3292 143.305 81.7145 143.18C82.0998 143.044 82.4172 142.851 82.6665 142.602C82.9158 142.341 83.0405 142.018 83.0405 141.633C83.0405 141.304 82.9102 141.038 82.6495 140.834C82.4002 140.63 82.0205 140.454 81.5105 140.307L80.7115 140.086C80.0542 139.905 79.5442 139.638 79.1815 139.287C78.8302 138.936 78.6545 138.533 78.6545 138.08C78.6545 137.536 78.7962 137.066 79.0795 136.669C79.3742 136.261 79.7822 135.949 80.3035 135.734C80.8248 135.507 81.4312 135.394 82.1225 135.394C82.8705 135.394 83.4768 135.558 83.9415 135.887C84.4062 136.204 84.7008 136.635 84.8255 137.179L83.8735 137.502C83.7488 137.06 83.5335 136.754 83.2275 136.584C82.9328 136.414 82.5078 136.329 81.9525 136.329C81.3178 136.329 80.7795 136.488 80.3375 136.805C79.8955 137.122 79.6745 137.513 79.6745 137.978C79.6745 138.193 79.7878 138.409 80.0145 138.624C80.2525 138.828 80.6152 138.992 81.1025 139.117L81.7995 139.304C82.6155 139.519 83.1992 139.831 83.5505 140.239C83.9018 140.647 84.0775 141.1 84.0775 141.599C84.0775 142.12 83.9245 142.585 83.6185 142.993C83.3125 143.401 82.9045 143.724 82.3945 143.962C81.8958 144.189 81.3348 144.302 80.7115 144.302Z" fill="black"/>
<path d="M76.4377 135.632L77.9507 132.198H79.1747L77.4067 135.632H76.4377Z" fill="black"/>
<path d="M64.2498 144.098L62.7708 135.598H63.7738L65.2698 144.098H64.2498ZM64.2498 144.098L68.5848 135.598H69.6048L65.2868 144.098H64.2498ZM70.0808 144.098L68.6018 135.598H69.6048L71.1008 144.098H70.0808ZM70.0638 144.098L74.3818 135.598H75.4188L71.1178 144.098H70.0638Z" fill="black"/>
<path d="M56.475 144.302C55.6477 144.302 54.945 144.109 54.367 143.724C53.8004 143.339 53.3924 142.806 53.143 142.126C52.8937 141.446 52.8427 140.664 52.99 139.78C53.1374 138.919 53.4377 138.159 53.891 137.502C54.3444 136.845 54.911 136.329 55.591 135.955C56.271 135.581 57.0077 135.394 57.801 135.394C58.6284 135.394 59.3254 135.587 59.892 135.972C60.47 136.357 60.878 136.89 61.116 137.57C61.3654 138.25 61.4164 139.032 61.269 139.916C61.133 140.777 60.8327 141.537 60.368 142.194C59.9147 142.851 59.348 143.367 58.668 143.741C57.9994 144.115 57.2684 144.302 56.475 144.302ZM56.492 143.367C57.1154 143.367 57.6877 143.214 58.209 142.908C58.7417 142.602 59.1894 142.183 59.552 141.65C59.926 141.106 60.1697 140.483 60.283 139.78C60.3964 139.1 60.368 138.505 60.198 137.995C60.028 137.474 59.7334 137.066 59.314 136.771C58.906 136.476 58.396 136.329 57.784 136.329C57.1607 136.329 56.5827 136.482 56.05 136.788C55.5174 137.094 55.0697 137.519 54.707 138.063C54.3444 138.596 54.1007 139.213 53.976 139.916C53.8627 140.596 53.891 141.197 54.061 141.718C54.2424 142.228 54.5427 142.63 54.962 142.925C55.3814 143.22 55.8914 143.367 56.492 143.367Z" fill="black"/>
<path d="M47.2573 144.098L48.6853 135.598H49.7053L48.2773 144.098H47.2573ZM48.4643 139.406C48.623 138.488 48.9177 137.746 49.3483 137.179C49.779 136.612 50.289 136.204 50.8783 135.955C51.4677 135.694 52.0683 135.564 52.6803 135.564L52.5953 136.499C52.0967 136.499 51.598 136.59 51.0993 136.771C50.612 136.952 50.1813 137.253 49.8073 137.672C49.4447 138.091 49.201 138.658 49.0763 139.372L48.4643 139.406Z" fill="black"/>
<path d="M41.7456 144.098L43.1736 135.598H44.1936L42.7656 144.098H41.7456ZM42.9526 139.406C43.1113 138.488 43.4059 137.746 43.8366 137.179C44.2673 136.612 44.7773 136.204 45.3666 135.955C45.9559 135.694 46.5566 135.564 47.1686 135.564L47.0836 136.499C46.5849 136.499 46.0863 136.59 45.5876 136.771C45.1003 136.952 44.6696 137.253 44.2956 137.672C43.9329 138.091 43.6893 138.658 43.5646 139.372L42.9526 139.406Z" fill="black"/>
<path d="M35.6069 144.302C34.7795 144.302 34.0769 144.109 33.4989 143.724C32.9322 143.339 32.5242 142.806 32.2749 142.126C32.0255 141.446 31.9745 140.664 32.1219 139.78C32.2692 138.919 32.5695 138.159 33.0229 137.502C33.4762 136.845 34.0429 136.329 34.7229 135.955C35.4029 135.581 36.1395 135.394 36.9329 135.394C37.7602 135.394 38.4572 135.587 39.0239 135.972C39.6019 136.357 40.0099 136.89 40.2479 137.57C40.4972 138.25 40.5482 139.032 40.4009 139.916C40.2649 140.777 39.9645 141.537 39.4999 142.194C39.0465 142.851 38.4799 143.367 37.7999 143.741C37.1312 144.115 36.4002 144.302 35.6069 144.302ZM35.6239 143.367C36.2472 143.367 36.8195 143.214 37.3409 142.908C37.8735 142.602 38.3212 142.183 38.6839 141.65C39.0579 141.106 39.3015 140.483 39.4149 139.78C39.5282 139.1 39.4999 138.505 39.3299 137.995C39.1599 137.474 38.8652 137.066 38.4459 136.771C38.0379 136.476 37.5279 136.329 36.9159 136.329C36.2925 136.329 35.7145 136.482 35.1819 136.788C34.6492 137.094 34.2015 137.519 33.8389 138.063C33.4762 138.596 33.2325 139.213 33.1079 139.916C32.9945 140.596 33.0229 141.197 33.1929 141.718C33.3742 142.228 33.6745 142.63 34.0939 142.925C34.5132 143.22 35.0232 143.367 35.6239 143.367Z" fill="black"/>
<path d="M17.5737 144.098L19.0017 135.598H19.9537L19.7497 137.162L18.5937 144.098H17.5737ZM23.0817 144.098L23.8127 139.729L24.9177 139.219L24.1017 144.098H23.0817ZM23.8127 139.729C23.9714 138.788 23.9941 138.074 23.8807 137.587C23.7787 137.1 23.5804 136.771 23.2857 136.601C22.9911 136.431 22.6397 136.346 22.2317 136.346C21.5064 136.346 20.8831 136.652 20.3617 137.264C19.8517 137.865 19.5061 138.698 19.3247 139.763L18.6957 139.695C18.9224 138.335 19.3531 137.281 19.9877 136.533C20.6337 135.774 21.4497 135.394 22.4357 135.394C23.3764 135.394 24.0791 135.717 24.5437 136.363C25.0197 137.009 25.1444 137.978 24.9177 139.27L23.8127 139.729ZM28.5897 144.098L29.3207 139.729L30.4257 139.236L29.6097 144.098H28.5897ZM29.3207 139.729C29.4794 138.788 29.5021 138.074 29.3887 137.587C29.2867 137.1 29.0884 136.771 28.7937 136.601C28.4991 136.431 28.1477 136.346 27.7397 136.346C27.0144 136.346 26.3911 136.652 25.8697 137.264C25.3597 137.865 25.0141 138.698 24.8327 139.763L24.2037 139.695C24.4304 138.335 24.8611 137.281 25.4957 136.533C26.1417 135.774 26.9577 135.394 27.9437 135.394C28.8844 135.394 29.5871 135.717 30.0517 136.363C30.5277 137.009 30.6524 137.978 30.4257 139.27L29.3207 139.729Z" fill="black"/>
<path d="M11.435 144.302C10.6077 144.302 9.90501 144.109 9.32701 143.724C8.76034 143.339 8.35234 142.806 8.10301 142.126C7.85367 141.446 7.80267 140.664 7.95001 139.78C8.09734 138.919 8.39767 138.159 8.85101 137.502C9.30434 136.845 9.87101 136.329 10.551 135.955C11.231 135.581 11.9677 135.394 12.761 135.394C13.5883 135.394 14.2853 135.587 14.852 135.972C15.43 136.357 15.838 136.89 16.076 137.57C16.3253 138.25 16.3763 139.032 16.229 139.916C16.093 140.777 15.7927 141.537 15.328 142.194C14.8747 142.851 14.308 143.367 13.628 143.741C12.9593 144.115 12.2283 144.302 11.435 144.302ZM11.452 143.367C12.0753 143.367 12.6477 143.214 13.169 142.908C13.7017 142.602 14.1493 142.183 14.512 141.65C14.886 141.106 15.1297 140.483 15.243 139.78C15.3563 139.1 15.328 138.505 15.158 137.995C14.988 137.474 14.6933 137.066 14.274 136.771C13.866 136.476 13.356 136.329 12.744 136.329C12.1207 136.329 11.5427 136.482 11.01 136.788C10.4773 137.094 10.0297 137.519 9.66701 138.063C9.30434 138.596 9.06067 139.213 8.93601 139.916C8.82267 140.596 8.85101 141.197 9.02101 141.718C9.20234 142.228 9.50267 142.63 9.92201 142.925C10.3413 143.22 10.8513 143.367 11.452 143.367Z" fill="black"/>
<path d="M2.33199 144.098L4.16799 133.184H0.291992L0.444992 132.198H9.28499L9.13199 133.184H5.25599L3.41999 144.098H2.33199Z" fill="black"/>
<g clip-path="url(#clip0_17_1005)">
<path d="M115.377 27.0342C110.813 27.0342 107.161 30.5862 107.161 35.0263C107.161 37.9864 108.835 40.5764 111.269 41.9084V89.7873H119.485V41.9824C121.92 40.5764 123.594 38.0604 123.594 35.1003C123.67 30.6602 119.942 27.0342 115.377 27.0342ZM115.377 39.0224C113.095 39.0224 111.269 37.2464 111.269 35.0263C111.269 32.8063 113.095 31.0302 115.377 31.0302C117.66 31.0302 119.485 32.8063 119.485 35.0263C119.485 37.2464 117.66 39.0224 115.377 39.0224Z" fill="black"/>
<path d="M246.002 105.698C246.002 109.768 242.578 113.098 238.394 113.098C235.427 113.098 232.84 111.47 231.623 109.102H135.842V17.488C133.407 16.082 131.734 13.566 131.734 10.6059C131.734 6.16583 135.385 2.61377 139.95 2.61377C144.515 2.61377 148.166 6.16583 148.166 10.6059C148.166 13.566 146.493 16.156 144.058 17.488V101.11H232.384C233.753 99.4075 235.96 98.2975 238.394 98.2975C242.578 98.2235 246.002 101.554 246.002 105.698Z" fill="black"/>
<path d="M96.8144 72.4709C95.445 70.6949 93.0866 68.6968 89.8152 66.4768C86.5439 64.2568 84.642 62.9987 84.1855 62.5547C83.653 62.1847 83.4248 61.4447 83.4248 60.4087C83.4248 59.9647 83.5008 59.5947 83.653 59.2987C83.8051 58.9287 84.0334 58.6327 84.2616 58.3366C84.4898 58.0406 84.8702 57.8926 85.1745 57.7446C85.5549 57.5966 85.9353 57.5226 86.3157 57.5226C86.6961 57.5226 87.1525 57.5966 87.5329 57.7446C87.9133 57.8926 88.2937 58.0406 88.598 58.3366C88.9784 58.5586 89.2827 58.8547 89.587 59.2247C89.8913 59.5947 90.1956 59.8907 90.4239 60.2607L95.9775 55.5246C95.445 54.7106 94.8363 53.9706 94.1516 53.3046C93.467 52.6385 92.7062 52.1205 91.8693 51.6765C91.0325 51.2325 90.1196 50.8625 89.1306 50.6405C88.1415 50.4185 87.0765 50.2705 85.9353 50.2705C84.4898 50.2705 83.1204 50.4925 81.8271 51.0105C80.5338 51.5285 79.3166 52.1945 78.3276 53.0826C77.2625 53.9706 76.5017 55.0806 75.8931 56.2646C75.2845 57.5226 75.0563 58.8547 75.0563 60.3347C75.0563 62.7027 75.741 64.7748 77.1103 66.4768C78.4797 68.1788 80.6099 69.9549 83.4248 71.8789C86.2396 73.8029 88.1415 75.1349 89.1306 75.949C90.1196 76.763 90.576 77.799 90.576 79.057C90.576 79.649 90.4999 80.167 90.2717 80.685C90.0435 81.2031 89.7392 81.6471 89.3588 82.0171C88.9784 82.3871 88.4459 82.6831 87.9133 82.9051C87.3808 83.1271 86.7722 83.2011 86.0875 83.2011C85.3267 83.2011 84.642 83.1271 83.9573 82.9051C83.2726 82.6831 82.664 82.3871 82.0554 82.0171C81.4467 81.6471 80.9142 81.129 80.3817 80.537C79.8491 79.945 79.3927 79.279 79.0123 78.539L72.3936 83.1271C73.0782 84.3851 73.839 85.4951 74.828 86.4571C75.817 87.4192 76.8821 88.2332 78.0233 88.8252C79.2405 89.4172 80.4577 89.9352 81.8271 90.2312C83.1965 90.5272 84.5659 90.6752 86.0114 90.6752C87.8372 90.6752 89.587 90.3792 91.1086 89.7872C92.7062 89.1952 94.0756 88.3812 95.2167 87.3452C96.3579 86.3091 97.2708 85.0511 97.8794 83.6451C98.4881 82.2391 98.7924 80.685 98.7924 79.057C98.8684 76.393 98.1837 74.3209 96.8144 72.4709Z" fill="black"/>
<path d="M209.637 78.3172C209.028 79.0572 208.267 79.6492 207.583 80.2413C206.822 80.8333 206.061 81.2773 205.3 81.7213C204.54 82.0913 203.703 82.4613 202.79 82.6833C201.877 82.9053 201.04 83.0533 200.051 83.0533C198.377 83.0533 196.78 82.7573 195.258 82.0913C193.813 81.4993 192.519 80.6113 191.378 79.4272C190.237 78.3172 189.4 76.9852 188.792 75.4312C188.183 73.8771 187.879 72.2491 187.879 70.4731C187.879 68.7711 188.183 67.143 188.792 65.663C189.4 64.183 190.237 62.8509 191.378 61.6669C192.519 60.5569 193.813 59.6689 195.258 59.0029C196.78 58.3369 198.301 58.0409 200.051 58.0409C200.964 58.0409 201.877 58.1149 202.714 58.3369C203.551 58.5589 204.388 58.8549 205.148 59.2249C205.909 59.5949 206.67 60.1129 207.355 60.6309C208.039 61.1489 208.724 61.8149 209.409 62.4809L215.495 57.3009C214.506 56.1908 213.441 55.1548 212.3 54.3408C211.158 53.4528 210.017 52.7128 208.724 52.1208C207.431 51.5287 206.061 51.0847 204.616 50.7887C203.17 50.4927 201.649 50.3447 200.051 50.3447C197.236 50.3447 194.574 50.8627 192.063 51.8988C189.552 52.9348 187.346 54.4148 185.52 56.2648C183.618 58.1149 182.173 60.2609 181.108 62.7029C180.043 65.145 179.51 67.735 179.51 70.4731C179.51 73.2111 180.043 75.8012 181.032 78.2432C182.097 80.6853 183.542 82.9053 185.444 84.6813C187.346 86.5314 189.552 88.0114 191.987 89.0474C194.497 90.0834 197.16 90.6014 199.975 90.6014C201.649 90.6014 203.246 90.4534 204.768 90.0834C206.289 89.7134 207.659 89.2694 209.028 88.6034C210.322 87.9374 211.539 87.1974 212.68 86.3094C213.821 85.4214 214.886 84.3853 215.875 83.2013L209.637 78.3172Z" fill="black"/>
<path d="M251.327 74.0988C251.175 74.6168 251.023 75.0608 250.871 75.5789C250.262 77.1329 249.425 78.4649 248.284 79.6489C247.143 80.7589 245.85 81.647 244.404 82.313C243.948 82.535 243.491 82.683 242.959 82.831V90.3791C244.556 90.1571 246.078 89.7131 247.523 89.0471C250.034 88.0111 252.24 86.5311 254.142 84.681C256.044 82.831 257.566 80.6849 258.631 78.2429C259.239 76.9109 259.62 75.5049 259.924 74.0248H251.327V74.0988ZM258.707 62.7026C257.642 60.2606 256.12 58.1145 254.218 56.2645C252.316 54.4145 250.11 52.9345 247.599 51.8984C246.154 51.3064 244.632 50.8624 243.035 50.5664V58.2625C243.491 58.4105 244.024 58.5585 244.48 58.7066C245.926 59.2986 247.219 60.1866 248.36 61.2966C249.501 62.4066 250.338 63.7386 250.947 65.2927C251.175 65.8847 251.403 66.4767 251.479 67.1427H260.076C259.772 65.6627 259.315 64.1827 258.707 62.7026ZM231.623 51.8984C229.113 52.9345 226.906 54.4145 225.004 56.2645C223.103 58.1145 221.657 60.2606 220.516 62.7026C219.907 64.1827 219.451 65.6627 219.146 67.2167H227.743C227.895 66.6247 228.048 66.0327 228.276 65.4407C228.884 63.8866 229.721 62.5546 230.862 61.4446C232.004 60.3346 233.297 59.4466 234.818 58.7806C235.123 58.6326 235.427 58.5586 235.655 58.4846V50.7144C234.286 51.0104 232.916 51.3804 231.623 51.8984ZM234.818 82.239C233.297 81.647 232.004 80.7589 230.862 79.5749C229.721 78.4649 228.884 77.0589 228.276 75.5049C228.124 75.0608 227.971 74.5428 227.819 74.0248H219.223C219.451 75.4309 219.907 76.8369 220.516 78.2429C221.581 80.6849 223.103 82.905 225.004 84.681C226.906 86.5311 229.113 88.0111 231.623 89.0471C232.916 89.5651 234.286 90.0091 235.655 90.2311V82.461C235.351 82.461 235.047 82.313 234.818 82.239Z" fill="black"/>
<path d="M28.2686 22.15C26.8993 20.374 24.5409 18.376 21.2695 16.1559C17.9982 13.9359 16.1724 12.6779 15.6398 12.3079C15.1073 11.9379 14.879 11.1979 14.879 10.1618C14.879 9.79183 14.9551 9.34782 15.1073 9.05182C15.2594 8.68181 15.4877 8.3858 15.7159 8.0898C16.0202 7.86779 16.3245 7.64579 16.6288 7.49779C17.0092 7.34978 17.3896 7.27578 17.77 7.27578C18.1504 7.27578 18.6068 7.34978 18.9872 7.49779C19.3676 7.64579 19.748 7.79379 20.0523 8.0898C20.4327 8.3118 20.737 8.60781 21.0413 8.97781C21.3456 9.34782 21.6499 9.64383 21.8782 10.0138L27.4318 5.27775C26.8993 4.46373 26.2906 3.72372 25.6059 3.13171C24.9212 2.4657 24.1605 1.94769 23.3236 1.50368C22.4868 1.05967 21.5738 0.689667 20.5848 0.467663C19.6719 0.245659 18.6068 0.0976562 17.4657 0.0976562C16.0202 0.0976562 14.7269 0.31966 13.4336 0.837669C12.1403 1.28168 10.9991 2.02169 9.93403 2.90971C8.86895 3.79772 8.10817 4.90774 7.49955 6.09176C6.89094 7.34979 6.6627 8.68181 6.6627 10.0878C6.6627 12.4559 7.3474 14.5279 8.71679 16.2299C10.0862 17.932 12.2163 19.708 15.0312 21.632C17.8461 23.5561 19.748 24.8881 20.737 25.6281C21.726 26.4421 22.1825 27.4041 22.1825 28.7362C22.1825 29.3282 22.1064 29.8462 21.8782 30.3642C21.6499 30.8822 21.3456 31.3262 20.9652 31.6962C20.5848 32.0662 20.0523 32.3622 19.5198 32.5842C18.9872 32.8062 18.3786 32.8802 17.6939 32.8802C16.9331 32.8802 16.2484 32.8062 15.5637 32.5842C14.879 32.3622 14.2704 32.0662 13.6618 31.6962C13.0532 31.3262 12.5207 30.8082 11.9881 30.2162C11.4556 29.6242 10.9991 28.9582 10.6187 28.2182L4 32.7322C4.6847 33.9903 5.44547 35.1003 6.43447 36.0623C7.42348 37.0243 8.48856 37.7643 9.62972 38.4303C10.7709 39.0223 12.0642 39.4664 13.4336 39.7624C14.803 40.0584 16.1724 40.2064 17.6178 40.2064C19.4437 40.2064 21.1174 39.9104 22.715 39.3184C24.3126 38.7263 25.682 37.9123 26.8232 36.8763C27.9643 35.8403 28.8773 34.5823 29.4859 33.1762C30.0945 31.7702 30.3988 30.2162 30.3988 28.5882C30.3227 26.0721 29.638 24.0001 28.2686 22.15Z" fill="#17B6C8"/>
<path d="M51.6245 75.7268V23.2599L63.6447 0.689453H54.4393L48.8857 12.4557C48.6575 12.8257 48.5053 13.1957 48.3531 13.5657C48.201 13.9357 48.0488 14.3057 47.9728 14.6017C47.8967 14.8977 47.7445 15.3417 47.5924 15.8597C47.5924 15.7857 47.5163 15.6377 47.4402 15.4157C47.3641 15.1197 47.212 14.8237 47.1359 14.5277C47.0598 14.2317 46.9077 13.9357 46.7555 13.5657C46.6034 13.1957 46.4512 12.8257 46.2991 12.4557L41.278 0.689453H32.1487L43.4842 23.2599V75.5788C40.8976 76.9108 39.2239 79.5749 39.2239 82.6089C39.2239 87.049 42.8756 90.6011 47.4402 90.6011C52.0048 90.6011 55.6566 87.049 55.6566 82.6089C55.6566 79.6489 54.0589 77.1328 51.6245 75.7268ZM47.4402 86.605C45.1579 86.605 43.332 84.8289 43.332 82.6089C43.332 80.3889 45.1579 78.6128 47.4402 78.6128C49.7225 78.6128 51.5484 80.3889 51.5484 82.6089C51.5484 84.7549 49.7225 86.605 47.4402 86.605Z" fill="#17B6C8"/>
<path d="M90.4998 0.689453V16.4517C90.4998 16.7477 90.4998 17.0437 90.4998 17.4137C90.4998 17.7098 90.4998 18.0058 90.4998 18.3018C90.4998 18.5238 90.4998 18.8198 90.4998 19.0418C90.4998 19.2638 90.4998 19.4118 90.4998 19.4858C90.4998 19.4858 90.3477 19.3378 90.2716 19.0418C90.1195 18.8198 90.0434 18.5978 89.8912 18.3758C89.8152 18.1538 89.663 17.9318 89.4348 17.7098C89.2826 17.4137 89.1305 17.1917 88.9783 16.8957L77.4906 0.689453H69.959V39.7621H77.5667V16.5257C77.5667 16.1557 77.5667 15.8597 77.5667 15.4157C77.5667 15.0457 77.5667 14.6757 77.4906 14.3057C77.4906 13.9357 77.4146 13.5657 77.4146 13.0477C77.6428 13.4177 77.871 13.7877 78.0232 14.0837C78.1753 14.3797 78.4036 14.6757 78.6318 15.0457C78.86 15.3417 79.0883 15.6377 79.2404 15.9337L90.4998 31.178V39.6881H98.2597V0.689453H90.4998Z" fill="#17B6C8"/>
<path d="M164.447 25.998C159.882 25.998 156.231 29.5501 156.231 33.9902C156.231 36.9502 157.904 39.5403 160.339 40.9463V89.9352H168.555V40.8723C170.99 39.4663 172.663 36.8762 172.663 33.9162C172.663 29.5501 169.012 25.998 164.447 25.998ZM164.447 37.9863C162.165 37.9863 160.339 36.2102 160.339 33.9902C160.339 31.7701 162.165 29.9941 164.447 29.9941C166.729 29.9941 168.555 31.7701 168.555 33.9902C168.555 36.2102 166.729 37.9863 164.447 37.9863Z" fill="black"/>
</g>
<defs>
<clipPath id="clip0_17_1005">
<rect width="256" height="113" fill="white" transform="translate(4 0.0976562)"/>
</clipPath>
</defs>
</svg>
