<svg width="" height="" viewBox="0 0 148 66" fill="none" xmlns="http://www.w3.org/2000/svg">
<g clip-path="url(#clip0_76_9304)">
<path d="M64.39 15.7329C61.751 15.7329 59.6399 17.8076 59.6399 20.4009C59.6399 22.1298 60.6075 23.6425 62.0149 24.4205V52.3852H66.765V24.4638C68.1724 23.6425 69.14 22.173 69.14 20.4441C69.184 17.8508 67.0289 15.7329 64.39 15.7329ZM64.39 22.7349C63.0705 22.7349 62.0149 21.6975 62.0149 20.4009C62.0149 19.1042 63.0705 18.0669 64.39 18.0669C65.7094 18.0669 66.765 19.1042 66.765 20.4009C66.765 21.6975 65.7094 22.7349 64.39 22.7349Z" fill="black"/>
<path d="M139.907 61.6777C139.907 64.055 137.928 65.9999 135.509 65.9999C133.794 65.9999 132.298 65.0491 131.595 63.666H76.221V10.1571C74.8136 9.33589 73.8459 7.86634 73.8459 6.13746C73.8459 3.54414 75.9571 1.46948 78.596 1.46948C81.235 1.46948 83.3461 3.54414 83.3461 6.13746C83.3461 7.86634 82.3785 9.37911 80.9711 10.1571V58.998H132.034C132.826 58.0039 134.102 57.3555 135.509 57.3555C137.928 57.3123 139.907 59.2573 139.907 61.6777Z" fill="black"/>
<path d="M53.6583 42.271C52.8666 41.2337 51.5032 40.0667 49.612 38.7701C47.7207 37.4734 46.6212 36.7386 46.3573 36.4793C46.0494 36.2632 45.9175 35.831 45.9175 35.2259C45.9175 34.9665 45.9614 34.7504 46.0494 34.5775C46.1374 34.3614 46.2693 34.1885 46.4013 34.0156C46.5332 33.8428 46.7531 33.7563 46.929 33.6699C47.149 33.5834 47.3689 33.5402 47.5888 33.5402C47.8087 33.5402 48.0726 33.5834 48.2925 33.6699C48.5124 33.7563 48.7323 33.8428 48.9082 34.0156C49.1281 34.1453 49.3041 34.3182 49.48 34.5343C49.6559 34.7504 49.8319 34.9233 49.9638 35.1394L53.1745 32.3732C52.8666 31.8978 52.5148 31.4655 52.1189 31.0765C51.7231 30.6875 51.2833 30.385 50.7995 30.1257C50.3157 29.8663 49.7879 29.6502 49.2161 29.5206C48.6443 29.3909 48.0286 29.3044 47.3689 29.3044C46.5332 29.3044 45.7415 29.4341 44.9938 29.7367C44.2461 30.0392 43.5424 30.4282 42.9706 30.9469C42.3549 31.4655 41.9151 32.1139 41.5632 32.8054C41.2114 33.5402 41.0794 34.3182 41.0794 35.1826C41.0794 36.5657 41.4753 37.776 42.2669 38.7701C43.0586 39.7642 44.2901 40.8015 45.9175 41.9253C47.5448 43.049 48.6443 43.827 49.2161 44.3025C49.7879 44.7779 50.0518 45.383 50.0518 46.1178C50.0518 46.4636 50.0078 46.7661 49.8758 47.0687C49.7439 47.3712 49.568 47.6306 49.3481 47.8467C49.1281 48.0628 48.8203 48.2357 48.5124 48.3653C48.2045 48.495 47.8527 48.5382 47.4568 48.5382C47.017 48.5382 46.6212 48.495 46.2253 48.3653C45.8295 48.2357 45.4776 48.0628 45.1258 47.8467C44.7739 47.6306 44.466 47.328 44.1582 46.9822C43.8503 46.6365 43.5864 46.2475 43.3665 45.8152L39.54 48.495C39.9359 49.2298 40.3757 49.8781 40.9475 50.44C41.5192 51.0019 42.135 51.4773 42.7947 51.8231C43.4984 52.1689 44.2021 52.4714 44.9938 52.6443C45.7855 52.8172 46.5772 52.9037 47.4128 52.9037C48.4684 52.9037 49.48 52.7308 50.3597 52.385C51.2833 52.0392 52.075 51.5638 52.7347 50.9587C53.3944 50.3536 53.9222 49.6188 54.2741 48.7976C54.6259 47.9763 54.8019 47.0687 54.8019 46.1178C54.8458 44.5618 54.45 43.3516 53.6583 42.271Z" fill="black"/>
<path d="M118.884 45.6856C118.532 46.1178 118.092 46.4636 117.696 46.8093C117.256 47.1551 116.817 47.4145 116.377 47.6738C115.937 47.8899 115.453 48.106 114.925 48.2357C114.398 48.3653 113.914 48.4518 113.342 48.4518C112.374 48.4518 111.451 48.2789 110.571 47.8899C109.735 47.5441 108.988 47.0255 108.328 46.3339C107.668 45.6856 107.184 44.9076 106.833 43.9999C106.481 43.0923 106.305 42.1414 106.305 41.104C106.305 40.1099 106.481 39.159 106.833 38.2946C107.184 37.4302 107.668 36.6522 108.328 35.9606C108.988 35.3123 109.735 34.7936 110.571 34.4046C111.451 34.0156 112.33 33.8427 113.342 33.8427C113.87 33.8427 114.398 33.886 114.881 34.0156C115.365 34.1453 115.849 34.3182 116.289 34.5343C116.729 34.7504 117.168 35.053 117.564 35.3555C117.96 35.6581 118.356 36.0471 118.752 36.4361L122.27 33.4105C121.699 32.7622 121.083 32.1571 120.423 31.6816C119.763 31.163 119.104 30.7308 118.356 30.385C117.608 30.0392 116.817 29.7799 115.981 29.607C115.145 29.4341 114.266 29.3477 113.342 29.3477C111.715 29.3477 110.175 29.6502 108.724 30.2553C107.272 30.8604 105.997 31.7249 104.941 32.8054C103.842 33.886 103.006 35.1394 102.39 36.5657C101.775 37.9921 101.467 39.5048 101.467 41.104C101.467 42.7033 101.775 44.216 102.346 45.6424C102.962 47.0687 103.798 48.3653 104.897 49.4027C105.997 50.4832 107.272 51.3477 108.68 51.9528C110.131 52.5579 111.671 52.8604 113.298 52.8604C114.266 52.8604 115.189 52.774 116.069 52.5579C116.949 52.3418 117.74 52.0824 118.532 51.6934C119.28 51.3044 119.983 50.8722 120.643 50.3535C121.303 49.8349 121.919 49.2298 122.49 48.5382L118.884 45.6856Z" fill="black"/>
<path d="M142.986 43.2219C142.898 43.5244 142.81 43.7838 142.722 44.0863C142.37 44.994 141.887 45.772 141.227 46.4635C140.567 47.1119 139.819 47.6305 138.984 48.0195C138.72 48.1492 138.456 48.2356 138.148 48.3221V52.7307C139.072 52.6011 139.951 52.3417 140.787 51.9527C142.238 51.3476 143.514 50.4832 144.613 49.4026C145.713 48.3221 146.593 47.0687 147.208 45.6423C147.56 44.8643 147.78 44.0431 147.956 43.1787H142.986V43.2219ZM147.252 36.5657C146.637 35.1394 145.757 33.8859 144.657 32.8054C143.558 31.7248 142.282 30.8604 140.831 30.2553C139.995 29.9095 139.116 29.6502 138.192 29.4773V33.9724C138.456 34.0588 138.764 34.1453 139.028 34.2317C139.863 34.5775 140.611 35.0962 141.271 35.7445C141.93 36.3928 142.414 37.1708 142.766 38.0785C142.898 38.4243 143.03 38.77 143.074 39.159H148.044C147.868 38.2946 147.604 37.4301 147.252 36.5657ZM131.595 30.2553C130.143 30.8604 128.868 31.7248 127.768 32.8054C126.669 33.8859 125.833 35.1394 125.173 36.5657C124.821 37.4301 124.558 38.2946 124.382 39.2022H129.352C129.44 38.8565 129.528 38.5107 129.659 38.1649C130.011 37.2573 130.495 36.4793 131.155 35.8309C131.815 35.1826 132.562 34.6639 133.442 34.2749C133.618 34.1885 133.794 34.1453 133.926 34.1021V29.5637C133.134 29.7366 132.342 29.9527 131.595 30.2553ZM133.442 47.9763C132.562 47.6305 131.815 47.1119 131.155 46.4203C130.495 45.772 130.011 44.9508 129.659 44.0431C129.571 43.7838 129.484 43.4812 129.396 43.1787H124.426C124.558 43.9999 124.821 44.8211 125.173 45.6423C125.789 47.0687 126.669 48.3653 127.768 49.4026C128.868 50.4832 130.143 51.3476 131.595 51.9527C132.342 52.2553 133.134 52.5146 133.926 52.6443V48.106C133.75 48.106 133.574 48.0195 133.442 47.9763Z" fill="black"/>
<path d="M14.0303 12.8802C13.2386 11.8428 11.8752 10.6758 9.98395 9.37918C8.09272 8.08251 7.03715 7.34774 6.72927 7.13163C6.4214 6.91552 6.28945 6.4833 6.28945 5.87819C6.28945 5.66208 6.33343 5.40275 6.4214 5.22986C6.50936 5.01375 6.64131 4.84086 6.77325 4.66798C6.94918 4.53831 7.12511 4.40864 7.30104 4.3222C7.52095 4.23576 7.74086 4.19253 7.96077 4.19253C8.18068 4.19253 8.44458 4.23576 8.66449 4.3222C8.8844 4.40864 9.10431 4.49509 9.28024 4.66798C9.50015 4.79764 9.67608 4.97053 9.85201 5.18664C10.0279 5.40275 10.2039 5.57564 10.3358 5.79175L13.5465 3.02554C13.2386 2.5501 12.8868 2.11788 12.4909 1.7721C12.0951 1.3831 11.6553 1.08055 11.1715 0.821218C10.6877 0.561886 10.1599 0.345776 9.58811 0.21611C9.06033 0.086444 8.44458 0 7.78484 0C6.94918 0 6.20149 0.129666 5.45379 0.43222C4.70609 0.691552 4.04636 1.12377 3.43061 1.64244C2.81486 2.1611 2.37504 2.80943 2.02318 3.50098C1.67132 4.23576 1.53938 5.01375 1.53938 5.83497C1.53938 7.21807 1.93522 8.42829 2.72689 9.4224C3.51857 10.4165 4.75007 11.4538 6.37741 12.5776C8.00476 13.7014 9.10431 14.4794 9.67608 14.9116C10.2478 15.387 10.5117 15.9489 10.5117 16.7269C10.5117 17.0727 10.4678 17.3752 10.3358 17.6778C10.2039 17.9804 10.0279 18.2397 9.80802 18.4558C9.58811 18.6719 9.28024 18.8448 8.97236 18.9745C8.66449 19.1041 8.31263 19.1473 7.91679 19.1473C7.47697 19.1473 7.08113 19.1041 6.68529 18.9745C6.28945 18.8448 5.93759 18.6719 5.58574 18.4558C5.23388 18.2397 4.926 17.9371 4.61813 17.5914C4.31025 17.2456 4.04636 16.8566 3.82645 16.4244L0 19.0609C0.39584 19.7957 0.835661 20.444 1.40743 21.0059C1.9792 21.5678 2.59495 22 3.25468 22.389C3.91441 22.7348 4.66211 22.9941 5.45379 23.167C6.24547 23.3399 7.03715 23.4263 7.87281 23.4263C8.92838 23.4263 9.89599 23.2534 10.8196 22.9077C11.7432 22.5619 12.5349 22.0864 13.1947 21.4813C13.8544 20.8762 14.3822 20.1415 14.734 19.3202C15.0859 18.499 15.2618 17.5914 15.2618 16.6405C15.2178 15.1709 14.822 13.9607 14.0303 12.8802Z" fill="#17B6C8"/>
<path d="M27.5329 44.1728V13.5284L34.4821 0.345703H29.1602L25.9495 7.218C25.8176 7.43411 25.7296 7.65022 25.6416 7.86633C25.5537 8.08244 25.4657 8.29855 25.4217 8.47144C25.3777 8.64433 25.2898 8.90366 25.2018 9.20621C25.2018 9.16299 25.1578 9.07655 25.1139 8.94688C25.0699 8.77399 24.9819 8.60111 24.9379 8.42822C24.8939 8.25533 24.806 8.08244 24.718 7.86633C24.63 7.65022 24.5421 7.43411 24.4541 7.218L21.5513 0.345703H16.2734L22.8268 13.5284V44.0864C21.3314 44.8644 20.3638 46.4204 20.3638 48.1925C20.3638 50.7858 22.4749 52.8604 25.1139 52.8604C27.7528 52.8604 29.8639 50.7858 29.8639 48.1925C29.8639 46.4636 28.9403 44.994 27.5329 44.1728ZM25.1139 50.5265C23.7944 50.5265 22.7388 49.4891 22.7388 48.1925C22.7388 46.8958 23.7944 45.8585 25.1139 45.8585C26.4333 45.8585 27.4889 46.8958 27.4889 48.1925C27.4889 49.4459 26.4333 50.5265 25.1139 50.5265Z" fill="#17B6C8"/>
<path d="M50.0078 0.345703V9.55199C50.0078 9.72488 50.0078 9.89777 50.0078 10.1139C50.0078 10.2868 50.0078 10.4597 50.0078 10.6325C50.0078 10.7622 50.0078 10.9351 50.0078 11.0648C50.0078 11.1944 50.0078 11.2809 50.0078 11.3241C50.0078 11.3241 49.9198 11.2376 49.8758 11.0648C49.7878 10.9351 49.7439 10.8054 49.6559 10.6758C49.6119 10.5461 49.524 10.4164 49.392 10.2868C49.304 10.1139 49.2161 9.98421 49.1281 9.81132L42.4868 0.345703H38.1326V23.1669H42.5308V9.59521C42.5308 9.3791 42.5308 9.20621 42.5308 8.94688C42.5308 8.73077 42.5308 8.51466 42.4868 8.29855C42.4868 8.08244 42.4428 7.86633 42.4428 7.56378C42.5748 7.77989 42.7067 7.996 42.7947 8.16889C42.8826 8.34177 43.0146 8.51466 43.1465 8.73077C43.2785 8.90366 43.4104 9.07655 43.4984 9.24944L50.0078 18.1532V23.1237H54.4939V0.345703H50.0078Z" fill="#17B6C8"/>
<path d="M92.7584 15.1277C90.1194 15.1277 88.0083 17.2023 88.0083 19.7957C88.0083 21.5245 88.9759 23.0373 90.3833 23.8585V52.4715H95.1334V23.8153C96.5408 22.9941 97.5084 21.4813 97.5084 19.7524C97.5084 17.2023 95.3973 15.1277 92.7584 15.1277ZM92.7584 22.1297C91.4389 22.1297 90.3833 21.0923 90.3833 19.7957C90.3833 18.499 91.4389 17.4617 92.7584 17.4617C94.0778 17.4617 95.1334 18.499 95.1334 19.7957C95.1334 21.0923 94.0778 22.1297 92.7584 22.1297Z" fill="black"/>
</g>
<defs>
<clipPath id="clip0_76_9304">
<rect width="148" height="66" fill="white"/>
</clipPath>
</defs>
</svg>
